<svg preserveAspectRatio="none" width="100%" height="100%" overflow="visible" style="display: block;" viewBox="0 0 20.0111 20.0101" fill="none" xmlns="http://www.w3.org/2000/svg">
<path id="Vector" d="M8.27539 0.504883C9.41433 0.546751 10.5289 0.847716 11.5342 1.38477C12.5395 1.92195 13.4092 2.6818 14.0771 3.60547C14.7451 4.52914 15.1945 5.59279 15.3896 6.71582L15.4346 6.97754L15.6768 7.08594C16.5643 7.48503 17.3509 8.07855 17.9785 8.82227C18.6062 9.56602 19.0585 10.4417 19.3027 11.3838C19.5469 12.3257 19.5769 13.3107 19.3896 14.2656C19.2023 15.2205 18.8026 16.1214 18.2207 16.9014L17.9629 17.248L19.3682 18.6533C19.4364 18.7233 19.4825 18.8122 19.501 18.9082C19.5196 19.0051 19.5089 19.1053 19.4707 19.1963L19.4697 19.2002C19.4322 19.2915 19.368 19.3696 19.2861 19.4248C19.2044 19.4798 19.1083 19.5092 19.0098 19.5098H13.0127C11.785 19.5072 10.5828 19.1573 9.5459 18.5C8.50907 17.8427 7.67945 16.9051 7.15332 15.7959L7.01758 15.5098H1.01465C0.915936 15.5093 0.819165 15.48 0.737305 15.4248C0.655525 15.3697 0.592208 15.2914 0.554687 15.2002L0.552734 15.1963L0.529297 15.126C0.511202 15.055 0.508555 14.9807 0.522461 14.9082C0.536507 14.8353 0.566835 14.7664 0.610352 14.707L0.658203 14.6514L2.04395 13.2744L2.35937 12.9619L2.08594 12.6123C1.38501 11.7135 0.897931 10.6669 0.662109 9.55176C0.426296 8.43665 0.447547 7.28234 0.724609 6.17676C1.00173 5.07109 1.52777 4.04304 2.26172 3.1709C2.99566 2.29878 3.91888 1.60547 4.96094 1.14355C6.00293 0.681701 7.1364 0.463033 8.27539 0.504883ZM14.625 7.79883C13.408 7.42776 12.1 7.49051 10.9238 7.97559C9.74761 8.46069 8.77636 9.33882 8.1748 10.46C7.57326 11.5811 7.37886 12.8758 7.625 14.124C7.87115 15.3723 8.54228 16.4968 9.52441 17.3057C10.5065 18.1144 11.7385 18.5582 13.0107 18.5605H17.8086L16.9551 17.7061L16.9053 17.6562L16.6016 17.96V17.959L16.9014 17.6533C16.8542 17.607 16.8168 17.5511 16.791 17.4902C16.766 17.4308 16.7528 17.3671 16.752 17.3027C16.755 17.1725 16.8083 17.0483 16.9014 16.957L16.9053 16.9541C17.806 16.0556 18.3668 14.8724 18.4932 13.6064C18.6196 12.3404 18.3031 11.0696 17.5977 10.0107C16.8923 8.95198 15.8419 8.16991 14.625 7.79883ZM8.01172 1.50977C6.2879 1.5098 4.63497 2.19516 3.41602 3.41406C2.19756 4.63252 1.51231 6.28472 1.51172 8.00781C1.50829 8.86251 1.67526 9.70962 2.00293 10.499C2.28965 11.1898 2.69442 11.8245 3.19824 12.375L3.41992 12.6055C3.46661 12.6519 3.50397 12.7068 3.5293 12.7676C3.55467 12.8285 3.56737 12.894 3.56738 12.96C3.56738 13.0259 3.55467 13.0914 3.5293 13.1523C3.50398 13.2131 3.4666 13.2681 3.41992 13.3145L3.07324 13.6514L2.18945 14.5098H6.67676L6.58594 13.9326C6.53806 13.6273 6.51307 13.3188 6.51172 13.0098C6.5118 11.286 7.1971 9.63298 8.41602 8.41406C9.63497 7.19516 11.2879 6.5098 13.0117 6.50977H14.3633L14.1348 5.84668C13.6951 4.57427 12.8673 3.47123 11.7686 2.69336C10.6707 1.91618 9.35679 1.50229 8.01172 1.50977Z" fill="var(--fill-0, #190B5A)" stroke="var(--stroke-0, #6342F8)"/>
</svg>
