<svg preserveAspectRatio="none" width="100%" height="100%" overflow="visible" style="display: block;" viewBox="0 0 18.0006 18.0012" fill="none" xmlns="http://www.w3.org/2000/svg">
<path id="Union" d="M16.809 0.0182799C17.1243 -0.0428677 17.4633 0.0495074 17.7075 0.293671C17.9514 0.537688 18.0428 0.876132 17.9819 1.19113L17.9965 1.28879C18.0114 1.48006 17.9847 1.67275 17.9213 1.85519L17.9233 1.85617L12.7241 17.0544H12.7231C12.6304 17.3245 12.4572 17.5603 12.227 17.7292C11.9968 17.8981 11.7205 17.9934 11.435 18.0007C11.1495 18.008 10.868 17.9271 10.6294 17.7702C10.391 17.6133 10.2064 17.3867 10.1001 17.1218L7.61373 10.9216C7.49752 10.8729 7.38806 10.8023 7.29342 10.7077C7.19874 10.6131 7.12734 10.5037 7.07857 10.3874L0.879355 7.90109C0.614469 7.79481 0.387874 7.61016 0.230917 7.3718C0.0740007 7.13323 -0.00680035 6.85158 0.000448405 6.56613L0.00728434 6.45969C0.0325495 6.21238 0.124166 5.97563 0.271933 5.77414L0.338339 5.69016C0.500258 5.50156 0.710408 5.35911 0.946737 5.27805V5.27707L16.145 0.0778502V0.0798033C16.3278 0.0161652 16.5207 -0.0103457 16.7124 0.00460803L16.809 0.0182799ZM9.40279 10.0114C9.40547 10.018 9.40895 10.0244 9.41158 10.031L9.41256 10.0329L11.354 14.8767L14.8979 4.51633L9.40279 10.0114ZM3.1235 6.64621L7.96725 8.58859H7.96627C7.97357 8.59152 7.98048 8.59537 7.98775 8.59836L13.4858 3.10031L3.1235 6.64621Z" fill="var(--fill-0, #A19EB2)"/>
</svg>
