<svg preserveAspectRatio="none" width="100%" height="100%" overflow="visible" style="display: block;" viewBox="0 0 16 16" fill="none" xmlns="http://www.w3.org/2000/svg">
<g id="Frame 1707478887">
<path id="Vector (Stroke)" d="M1.66602 4.20862C1.66602 3.76659 1.84174 3.34247 2.1543 3.02991C2.46685 2.71736 2.89099 2.54163 3.33301 2.54163H5.60742V2.5426C5.88447 2.54066 6.15774 2.60673 6.40234 2.73694C6.64647 2.86695 6.85387 3.05639 7.00684 3.28674H7.00781L7.48047 3.98694L7.4834 3.99182C7.544 4.08384 7.62669 4.1592 7.72363 4.21155C7.82072 4.26387 7.92975 4.29157 8.04004 4.29163H11.499C11.941 4.29163 12.3652 4.46736 12.6777 4.77991C12.9903 5.09247 13.166 5.51659 13.166 5.95862V6.70276C13.2457 6.72774 13.3239 6.75768 13.3994 6.79456C13.6281 6.90634 13.8283 7.06901 13.9844 7.27014C14.1405 7.47129 14.2493 7.70536 14.3008 7.95471C14.3522 8.20401 14.3459 8.46215 14.2822 8.70862L13.3838 12.2076V12.2086C13.2909 12.5682 13.0805 12.8865 12.7861 13.1129C12.4926 13.3387 12.132 13.4594 11.7617 13.4576L3.33301 13.4586C2.89104 13.4586 2.46684 13.2828 2.1543 12.9703C1.84174 12.6578 1.66602 12.2337 1.66602 11.7916V4.20862ZM2.66602 11.7916C2.66602 11.9684 2.7363 12.1383 2.86133 12.2633C2.98634 12.3882 3.15626 12.4586 3.33301 12.4586H11.7656C11.914 12.4595 12.0582 12.4104 12.1758 12.3199C12.2935 12.2294 12.3779 12.1024 12.415 11.9586L13.3135 8.45862L13.3281 8.38342C13.3386 8.30823 13.3367 8.23158 13.3213 8.15686C13.3007 8.05715 13.2567 7.96386 13.1943 7.88342C13.132 7.80304 13.0523 7.73771 12.9609 7.69299C12.8695 7.64829 12.7688 7.62447 12.667 7.62463H6.40137L6.31152 7.63342C6.22255 7.6476 6.13724 7.6797 6.06055 7.72815C5.95838 7.79274 5.87565 7.88387 5.82129 7.99182L5.81836 7.9967L4.94336 9.68811C4.81647 9.93333 4.51478 10.0288 4.26953 9.90198C4.02446 9.77503 3.92885 9.47333 4.05566 9.22815L4.93066 7.53674C5.06655 7.26921 5.27172 7.04286 5.52539 6.88245C5.7808 6.72098 6.07585 6.63261 6.37793 6.62561L6.38965 6.62463H12.166V5.95862C12.166 5.78181 12.0957 5.61196 11.9707 5.48694C11.8457 5.36193 11.6758 5.29163 11.499 5.29163H8.04004C7.76426 5.29157 7.49279 5.22318 7.25 5.09241C7.00852 4.96227 6.80288 4.77415 6.65137 4.54553L6.17871 3.84631L6.17578 3.84143C6.11449 3.74842 6.03093 3.67212 5.93262 3.61975C5.8342 3.56734 5.7238 3.54053 5.6123 3.54163H3.33301C3.15621 3.54163 2.98635 3.61193 2.86133 3.73694C2.7363 3.86196 2.66602 4.03181 2.66602 4.20862V11.7916Z" fill="var(--fill-0, #6342F8)"/>
</g>
</svg>
