<svg preserveAspectRatio="none" width="100%" height="100%" overflow="visible" style="display: block;" viewBox="0 0 16 16" fill="none" xmlns="http://www.w3.org/2000/svg">
<g id="Frame 1707478887">
<path id="Union" d="M8.50012 1C8.63273 1 8.75987 1.05272 8.85364 1.14648L12.8536 5.14648C12.9474 5.24025 13.0001 5.36739 13.0001 5.5V12C13.0001 13.1046 12.1047 14 11.0001 14H5.00012C3.89555 14 3.00012 13.1046 3.00012 12V3C3.00012 1.89543 3.89555 1 5.00012 1H8.50012ZM5.00012 2C4.44784 2 4.00012 2.44772 4.00012 3V12C4.00012 12.5523 4.44784 13 5.00012 13H11.0001C11.5524 13 12.0001 12.5523 12.0001 12V6H10.0001C8.89555 6 8.00012 5.10457 8.00012 4V2H5.00012ZM7.99426 7.5C8.27041 7.5 8.49426 7.72386 8.49426 8V8.99512H9.50012C9.77626 8.99512 10.0001 9.21898 10.0001 9.49512C10.0001 9.7712 9.77622 9.99512 9.50012 9.99512H8.49426V11C8.49426 11.2761 8.27041 11.5 7.99426 11.5C7.71812 11.5 7.49426 11.2761 7.49426 11V9.99512H6.50012C6.22402 9.99512 6.00019 9.7712 6.00012 9.49512C6.00012 9.21898 6.22398 8.99512 6.50012 8.99512H7.49426V8C7.49426 7.72386 7.71812 7.5 7.99426 7.5ZM9.00012 4C9.00012 4.55228 9.44784 5 10.0001 5H11.2931L9.00012 2.70703V4Z" fill="var(--fill-0, #A19EB2)"/>
</g>
</svg>
