<svg preserveAspectRatio="none" width="100%" height="100%" overflow="visible" style="display: block;" viewBox="0 0 20 20" fill="none" xmlns="http://www.w3.org/2000/svg">
<path id="Union" d="M10.1172 0.00488281C10.3915 0.0273406 10.6545 0.127629 10.875 0.294922C11.0955 0.462158 11.2628 0.688334 11.3584 0.946289L11.3955 1.05957L11.4004 1.0791L12.8232 6.60059C12.859 6.73883 12.9313 6.86483 13.0322 6.96582C13.1333 7.0669 13.26 7.1391 13.3984 7.1748H13.3975L18.9189 8.59766C18.9244 8.59906 18.9301 8.60104 18.9355 8.60254C19.2413 8.68688 19.5109 8.86888 19.7031 9.12109C19.8954 9.37359 20 9.68263 20 10C20 10.3174 19.8954 10.6264 19.7031 10.8789C19.5109 11.1311 19.2413 11.3131 18.9355 11.3975C18.9301 11.399 18.9244 11.4009 18.9189 11.4023L13.3975 12.8242L13.3984 12.8252C13.26 12.8609 13.1333 12.9331 13.0322 13.0342C12.9313 13.1352 12.859 13.2612 12.8232 13.3994L11.3994 18.9209C11.3977 18.9274 11.3963 18.934 11.3945 18.9404C11.3092 19.2452 11.1261 19.5138 10.874 19.7051C10.622 19.8963 10.3144 20 9.99805 20C9.68169 20 9.37414 19.8962 9.12207 19.7051C8.86996 19.5138 8.68685 19.2452 8.60156 18.9404C8.59976 18.934 8.59836 18.9274 8.59668 18.9209L7.17383 13.3994C7.13814 13.2612 7.06571 13.1352 6.96484 13.0342C6.86377 12.9331 6.73704 12.8609 6.59863 12.8252L1.07715 11.4014C1.06941 11.3994 1.0614 11.3967 1.05371 11.3945C0.750351 11.3083 0.48311 11.1256 0.292969 10.874C0.126673 10.6539 0.0272322 10.3915 0.00488281 10.1182L0 10L0.00488281 9.88184C0.0272319 9.60847 0.126673 9.34612 0.292969 9.12598L0.368164 9.03516C0.550811 8.83036 0.788211 8.68091 1.05371 8.60547L1.07715 8.59863L6.59863 7.17383C6.73696 7.13816 6.86378 7.06678 6.96484 6.96582C7.06592 6.86481 7.13806 6.73796 7.17383 6.59961L8.59766 1.0791L8.60254 1.05957C8.68778 0.754985 8.87014 0.486151 9.12207 0.294922C9.37419 0.103676 9.68258 0 9.99902 0L10.1172 0.00488281ZM3 13C3.55228 13 4 13.4477 4 14C4.55228 14 5 14.4477 5 15C5 15.5523 4.55228 16 4 16C4 16.5523 3.55228 17 3 17C2.44772 17 2 16.5523 2 16C1.44772 16 1 15.5523 1 15C1 14.4477 1.44772 14 2 14C2 13.4477 2.44772 13 3 13ZM9.11035 7.09961V7.10059C8.98514 7.5848 8.73171 8.02635 8.37793 8.37988C8.02429 8.73324 7.58269 8.98544 7.09863 9.11035L3.65137 9.99902L7.09863 10.8887C7.58296 11.0137 8.0252 11.2664 8.37891 11.6201C8.73254 11.9739 8.9854 12.416 9.11035 12.9004L9.99805 16.3457L10.8867 12.9004L10.9395 12.7207C11.0763 12.3067 11.3086 11.9297 11.6182 11.6201C11.9719 11.2663 12.414 11.0137 12.8984 10.8887L16.3467 10L12.8984 9.11133C12.414 8.98633 11.9719 8.73365 11.6182 8.37988C11.3086 8.07029 11.0763 7.69334 10.9395 7.2793L10.8867 7.09961L9.99805 3.65332L9.11035 7.09961ZM17 1C17.5523 1 18 1.44772 18 2V3H19C19.5523 3 20 3.44772 20 4C20 4.55228 19.5523 5 19 5H18V6C18 6.55228 17.5523 7 17 7C16.4477 7 16 6.55228 16 6V5H15C14.4477 5 14 4.55228 14 4C14 3.44772 14.4477 3 15 3H16V2C16 1.44772 16.4477 1 17 1Z" fill="var(--fill-0, white)"/>
</svg>
