<svg preserveAspectRatio="none" width="100%" height="100%" overflow="visible" style="display: block;" viewBox="0 0 17.128 5.81836" fill="none" xmlns="http://www.w3.org/2000/svg">
<g id="47 evidence">
<path id="Vector" d="M14.2813 5.81836H12.2188V0.000177383H14.2983C14.8835 0.000177383 15.3873 0.116655 15.8097 0.349609C16.232 0.58067 16.5568 0.913056 16.7841 1.34677C17.0133 1.78048 17.1278 2.29942 17.1278 2.90359C17.1278 3.50965 17.0133 4.03048 16.7841 4.46609C16.5568 4.90169 16.2301 5.23597 15.804 5.46893C15.3797 5.70188 14.8722 5.81836 14.2813 5.81836ZM13.4489 4.76438H14.2301C14.5938 4.76438 14.8996 4.69999 15.1477 4.5712C15.3977 4.44052 15.5852 4.23881 15.7102 3.96609C15.8371 3.69147 15.9006 3.3373 15.9006 2.90359C15.9006 2.47366 15.8371 2.12234 15.7102 1.84961C15.5852 1.57688 15.3987 1.37612 15.1506 1.24734C14.9025 1.11855 14.5966 1.05415 14.233 1.05415H13.4489V4.76438Z" fill="var(--fill-0, #F9AB38)"/>
<path id="Vector_2" d="M7.32031 5.81836V0.000177383H11.2408V1.01438H8.55043V2.40075H11.0391V3.41495H8.55043V4.80415H11.2521V5.81836H7.32031Z" fill="var(--fill-0, #F9AB38)"/>
<path id="Vector_3" d="M0 0.000177383H1.51705L3.11932 3.90927H3.1875L4.78977 0.000177383H6.30682V5.81836H5.11364V2.03143H5.06534L3.55966 5.78995H2.74716L1.24148 2.01722H1.19318V5.81836H0V0.000177383Z" fill="var(--fill-0, #F9AB38)"/>
</g>
</svg>
