<svg preserveAspectRatio="none" width="100%" height="100%" overflow="visible" style="display: block;" viewBox="0 0 20 20" fill="none" xmlns="http://www.w3.org/2000/svg">
<g id="GoogleIcon" clip-path="url(#clip0_0_194)">
<path id="Vector" d="M19.6 10.2222C19.6 9.51444 19.5367 8.83222 19.4178 8.17778H10V12.0456H15.3822C15.15 13.2956 14.4456 14.3544 13.3867 15.0644V17.5733H16.6178C18.5089 15.57 19.6 13.0056 19.6 10.2222Z" fill="var(--fill-0, #4285F4)"/>
<path id="Vector_2" d="M10 20C12.7 20 14.9633 19.1044 16.6178 17.5778L13.3867 15.0678C12.4911 15.6678 11.3456 16.0233 10 16.0233C7.39556 16.0233 5.19111 14.2633 4.40444 11.9H1.06333V14.4911C2.70889 17.7589 6.09111 20 10 20Z" fill="var(--fill-0, #34A853)"/>
<path id="Vector_3" d="M4.40444 11.9C4.20444 11.3 4.09111 10.6589 4.09111 10C4.09111 9.34111 4.20444 8.7 4.40444 8.1V5.50889H1.06333C0.385555 6.85889 -4.76837e-07 8.38667 -4.76837e-07 10C-4.76837e-07 11.6133 0.386666 13.1411 1.06333 14.4911L4.40444 11.9Z" fill="var(--fill-0, #FBBC05)"/>
<path id="Vector_4" d="M10 3.97778C11.4678 3.97778 12.7867 4.48222 13.8222 5.47222L16.6911 2.60556C14.9589 0.99 12.6956 -4.76837e-07 10 -4.76837e-07C6.09111 -4.76837e-07 2.70889 2.24111 1.06333 5.50889L4.40444 6.98889C5.19111 4.62556 7.39556 3.97778 10 3.97778Z" fill="var(--fill-0, #EA4335)"/>
</g>
<defs>
<clipPath id="clip0_0_194">
<rect width="20" height="20" fill="white"/>
</clipPath>
</defs>
</svg>
