<svg preserveAspectRatio="none" width="100%" height="100%" overflow="visible" style="display: block;" viewBox="0 0 17.9824 5.97749" fill="none" xmlns="http://www.w3.org/2000/svg">
<g id="47 evidence">
<path id="Vector" d="M11.6612 5.89795L9.99645 0.0797672H11.3402L12.3033 4.12238H12.3516L13.4141 0.0797672H14.5646L15.6243 4.1309H15.6754L16.6385 0.0797672H17.9822L16.3175 5.89795H15.1186L14.0107 2.09397H13.9652L12.8601 5.89795H11.6612Z" fill="var(--fill-0, #27B65F)"/>
<path id="Vector_2" d="M9.65909 2.98886C9.65909 3.62333 9.53883 4.1631 9.2983 4.60818C9.05966 5.05325 8.7339 5.39321 8.32102 5.62806C7.91004 5.86102 7.44792 5.97749 6.93466 5.97749C6.41761 5.97749 5.9536 5.86007 5.54261 5.62522C5.13163 5.39037 4.80682 5.05041 4.56818 4.60534C4.32955 4.16026 4.21023 3.62143 4.21023 2.98886C4.21023 2.35439 4.32955 1.81462 4.56818 1.36954C4.80682 0.924464 5.13163 0.585449 5.54261 0.352495C5.9536 0.117646 6.41761 0.000221729 6.93466 0.000221729C7.44792 0.000221729 7.91004 0.117646 8.32102 0.352495C8.7339 0.585449 9.05966 0.924464 9.2983 1.36954C9.53883 1.81462 9.65909 2.35439 9.65909 2.98886ZM8.41193 2.98886C8.41193 2.57787 8.35038 2.23128 8.22727 1.94909C8.10606 1.66689 7.93466 1.45287 7.71307 1.30704C7.49148 1.16121 7.23201 1.08829 6.93466 1.08829C6.63731 1.08829 6.37784 1.16121 6.15625 1.30704C5.93466 1.45287 5.76231 1.66689 5.6392 1.94909C5.51799 2.23128 5.45739 2.57787 5.45739 2.98886C5.45739 3.39984 5.51799 3.74643 5.6392 4.02863C5.76231 4.31083 5.93466 4.52484 6.15625 4.67068C6.37784 4.81651 6.63731 4.88943 6.93466 4.88943C7.23201 4.88943 7.49148 4.81651 7.71307 4.67068C7.93466 4.52484 8.10606 4.31083 8.22727 4.02863C8.35038 3.74643 8.41193 3.39984 8.41193 2.98886Z" fill="var(--fill-0, #27B65F)"/>
<path id="Vector_3" d="M0 5.89795V0.0797672H1.23011V4.88374H3.72443V5.89795H0Z" fill="var(--fill-0, #27B65F)"/>
</g>
</svg>
