<svg preserveAspectRatio="none" width="100%" height="100%" overflow="visible" style="display: block;" viewBox="0 0 16 16" fill="none" xmlns="http://www.w3.org/2000/svg">
<g id="Frame 1707478887">
<path id="Union" d="M13.082 12C13.3581 12 13.582 12.2239 13.582 12.5C13.5818 12.7759 13.358 13 13.082 13H7.83203C7.55601 13 7.33223 12.776 7.33203 12.5C7.33203 12.2239 7.55589 12 7.83203 12H13.082ZM11.2598 2.08301C11.7207 2.08305 12.1633 2.2659 12.4893 2.5918C12.8152 2.91772 12.998 3.36038 12.998 3.82129C12.998 4.28221 12.8151 4.72482 12.4893 5.05078L5.4834 12.0566C5.33483 12.2052 5.15938 12.3241 4.96777 12.4072L4.77051 12.4785L3.0957 12.9668C2.95947 13.0065 2.81423 13.0098 2.67676 12.9746C2.53941 12.9394 2.41375 12.8669 2.31348 12.7666C2.2134 12.6663 2.14161 12.5406 2.10645 12.4033C2.07141 12.266 2.07361 12.1214 2.11328 11.9854L2.60254 10.3105L2.67383 10.1133C2.75702 9.92185 2.8759 9.74706 3.02441 9.59863L10.0303 2.5918C10.3562 2.26593 10.7988 2.08301 11.2598 2.08301ZM11.2598 3.08301C11.0641 3.08301 10.8757 3.1605 10.7373 3.29883L3.73145 10.3057C3.65226 10.3848 3.59392 10.4834 3.5625 10.5908L3.17969 11.9004L4.49023 11.5186H4.49121C4.59873 11.4872 4.69716 11.4288 4.77637 11.3496L11.7813 4.34375C11.9196 4.20532 11.998 4.017 11.998 3.82129C11.998 3.62558 11.9196 3.43722 11.7813 3.29883C11.6429 3.16074 11.4553 3.08305 11.2598 3.08301Z" fill="var(--fill-0, #A19EB2)"/>
</g>
</svg>
