<svg preserveAspectRatio="none" width="100%" height="100%" overflow="visible" style="display: block;" viewBox="0 0 19.2516 5.97749" fill="none" xmlns="http://www.w3.org/2000/svg">
<g id="47 evidence">
<path id="Vector" d="M14.2969 5.89795V0.0797672H15.527V2.48034H18.0241V0.0797672H19.2514V5.89795H18.0241V3.49454H15.527V5.89795H14.2969Z" fill="var(--fill-0, #F24742)"/>
<path id="Vector_2" d="M12.0689 1.96045C12.0291 1.82219 11.9732 1.70003 11.9013 1.59397C11.8293 1.48602 11.7412 1.39511 11.6371 1.32124C11.5348 1.24549 11.4174 1.18772 11.2848 1.14795C11.1541 1.10818 11.0092 1.08829 10.8501 1.08829C10.5528 1.08829 10.2914 1.16215 10.0661 1.30988C9.84257 1.45761 9.66832 1.67257 9.54332 1.95477C9.41832 2.23507 9.35582 2.57787 9.35582 2.98318C9.35582 3.38848 9.41738 3.73318 9.54048 4.01727C9.66359 4.30136 9.83783 4.51821 10.0632 4.66784C10.2886 4.81556 10.5547 4.88943 10.8615 4.88943C11.1399 4.88943 11.3776 4.84018 11.5746 4.7417C11.7734 4.64132 11.925 4.50022 12.0291 4.3184C12.1352 4.13659 12.1882 3.92162 12.1882 3.67352L12.4382 3.71045H10.9382V2.78431H13.3729V3.51727C13.3729 4.02863 13.2649 4.46802 13.049 4.83545C12.8331 5.20098 12.5357 5.48318 12.157 5.68204C11.7782 5.87901 11.3445 5.97749 10.8558 5.97749C10.3104 5.97749 9.8312 5.85723 9.41832 5.6167C9.00544 5.37427 8.68348 5.03052 8.45241 4.58545C8.22325 4.13848 8.10866 3.60818 8.10866 2.99454C8.10866 2.52295 8.17685 2.10249 8.31321 1.73318C8.45147 1.36196 8.64465 1.04757 8.89276 0.789995C9.14086 0.532419 9.42969 0.336396 9.75923 0.201926C10.0888 0.0674566 10.4458 0.000221729 10.8303 0.000221729C11.1598 0.000221729 11.4666 0.0485172 11.7507 0.145108C12.0348 0.239805 12.2867 0.374275 12.5064 0.548517C12.728 0.72276 12.9089 0.930146 13.049 1.17068C13.1892 1.40931 13.2791 1.67257 13.3189 1.96045H12.0689Z" fill="var(--fill-0, #F24742)"/>
<path id="Vector_3" d="M7.19886 0.0797672V5.89795H5.96875V0.0797672H7.19886Z" fill="var(--fill-0, #F24742)"/>
<path id="Vector_4" d="M0 5.89795V0.0797672H1.23011V2.48034H3.72727V0.0797672H4.95455V5.89795H3.72727V3.49454H1.23011V5.89795H0Z" fill="var(--fill-0, #F24742)"/>
</g>
</svg>
