<svg preserveAspectRatio="none" width="100%" height="100%" overflow="visible" style="display: block;" viewBox="0 0 17.9999 9.99992" fill="none" xmlns="http://www.w3.org/2000/svg">
<path id="Union" d="M16.9999 0C17.0586 4.32465e-06 17.1159 0.00593062 17.1718 0.015625C17.2119 0.0225911 17.2518 0.0310963 17.2909 0.0429688C17.34 0.0578824 17.387 0.0776671 17.4325 0.0996096C17.474 0.119559 17.5146 0.141955 17.5536 0.167969C17.6652 0.242368 17.761 0.338248 17.8349 0.450196C17.88 0.51862 17.9148 0.591699 17.9413 0.666993C17.9461 0.680368 17.9518 0.693404 17.956 0.707033C17.9622 0.727318 17.9667 0.747988 17.9716 0.768556C17.9893 0.842933 17.9999 0.920227 17.9999 1V6.00001C17.9999 6.55227 17.5522 6.99997 16.9999 7.00001C16.4476 7.00001 15.9999 6.5523 15.9999 6.00001V3.41407L10.707 8.70705C10.3164 9.09756 9.68342 9.09754 9.29289 8.70705L5.99992 5.41407L1.70696 9.70705C1.31644 10.0976 0.683421 10.0975 0.292893 9.70705C-0.0976311 9.31652 -0.0976311 8.68351 0.292893 8.29298L5.29289 3.29297L5.36907 3.22462C5.76184 2.9043 6.34085 2.92687 6.70696 3.29297L9.99992 6.58595L14.5859 2H11.9999C11.4476 2 10.9999 1.55229 10.9999 1C10.9999 0.447716 11.4476 0 11.9999 0H16.9999Z" fill="var(--fill-0, #6342F8)"/>
</svg>
