<svg preserveAspectRatio="none" width="100%" height="100%" overflow="visible" style="display: block;" viewBox="0 0 16.0116 16.0099" fill="none" xmlns="http://www.w3.org/2000/svg">
<path id="Vector" d="M15.0059 0.5C15.1395 0.500016 15.2678 0.552978 15.3623 0.647461C15.4568 0.741953 15.5097 0.87028 15.5098 1.00391C15.5098 1.10437 15.4798 1.20187 15.4248 1.28418L15.3623 1.36035L9.0625 7.65039L8.70801 8.00391L9.0625 8.3584L15.3623 14.6475L15.3633 14.6494C15.41 14.6958 15.4473 14.7508 15.4727 14.8115C15.498 14.8724 15.5117 14.938 15.5117 15.0039C15.5117 15.0699 15.498 15.1354 15.4727 15.1963C15.4473 15.2572 15.4101 15.3129 15.3633 15.3594L15.3604 15.3623C15.314 15.409 15.259 15.4464 15.1982 15.4717C15.1373 15.4971 15.0718 15.5098 15.0059 15.5098C14.9399 15.5098 14.8744 15.497 14.8135 15.4717C14.7526 15.4463 14.6969 15.4092 14.6504 15.3623L14.6494 15.3604L8.35938 9.06055L8.00586 8.70605L7.65234 9.06055L1.3623 15.3604L1.36035 15.3623C1.31396 15.409 1.25898 15.4464 1.19824 15.4717C1.13733 15.4971 1.07185 15.5098 1.00586 15.5098C0.939872 15.5098 0.874388 15.497 0.813477 15.4717C0.75255 15.4463 0.696875 15.4092 0.650391 15.3623L0.647461 15.3594L0.584961 15.2832C0.566642 15.256 0.550772 15.2267 0.538086 15.1963C0.512758 15.1354 0.5 15.0698 0.5 15.0039C0.500024 14.938 0.512725 14.8724 0.538086 14.8115C0.5634 14.7508 0.600803 14.6958 0.647461 14.6494L0.649414 14.6475L6.94922 8.3584L7.30371 8.00391L6.94922 7.65039L0.649414 1.36035C0.554918 1.26582 0.501953 1.13757 0.501953 1.00391C0.502002 0.87028 0.554922 0.741953 0.649414 0.647461C0.743938 0.553003 0.872224 0.5 1.00586 0.5C1.10607 0.500012 1.20298 0.530192 1.28516 0.584961L1.3623 0.647461L7.65234 6.94727L8.00586 7.30176L8.35938 6.94727L14.6494 0.647461C14.7439 0.553002 14.8722 0.5 15.0059 0.5Z" fill="var(--fill-0, #190B5A)" stroke="var(--stroke-0, #696580)"/>
</svg>
