<svg preserveAspectRatio="none" width="100%" height="100%" overflow="visible" style="display: block;" viewBox="0 0 12 18.666" fill="none" xmlns="http://www.w3.org/2000/svg">
<path id="Union" d="M7.66699 16.666C8.21918 16.666 8.66683 17.1139 8.66699 17.666C8.66699 18.2183 8.21928 18.666 7.66699 18.666H4.33398C3.7817 18.666 3.33398 18.2183 3.33398 17.666C3.33415 17.1139 3.7818 16.666 4.33398 16.666H7.66699ZM8.5 13.333C9.05228 13.333 9.5 13.7807 9.5 14.333C9.5 14.8853 9.05228 15.333 8.5 15.333H3.5C2.94772 15.333 2.5 14.8853 2.5 14.333C2.5 13.7807 2.94772 13.333 3.5 13.333H8.5ZM6 0C7.5913 0 9.11697 0.632594 10.2422 1.75781C11.3673 2.88302 12 4.40877 12 6C11.9999 7.31431 11.4992 8.66255 10.4561 9.62305L10.457 9.62402C9.85669 10.2244 9.59209 10.6382 9.48047 11.1963C9.37195 11.7376 8.84509 12.0887 8.30371 11.9805C7.76236 11.8721 7.41142 11.3451 7.51953 10.8037C7.74122 9.6955 8.31039 8.94259 9.04297 8.20996L9.08105 8.17383C9.67806 7.63652 9.99992 6.83601 10 6C10 4.93921 9.57817 3.92201 8.82812 3.17188C8.07798 2.42173 7.06087 2 6 2C4.93913 2 3.92202 2.42173 3.17188 3.17188C2.42182 3.92201 2 4.93921 2 6C2.00003 6.63751 2.10536 7.35829 2.95703 8.20996C3.59647 8.84945 4.25708 9.68705 4.48047 10.8037C4.58858 11.3451 4.23764 11.8721 3.69629 11.9805C3.15491 12.0887 2.62806 11.7376 2.51953 11.1963C2.40961 10.6467 2.06989 10.151 1.54297 9.62402C0.228238 8.30929 4.51e-05 7.02903 0 6C0 4.40877 0.63269 2.88302 1.75781 1.75781C2.88303 0.632594 4.4087 0 6 0Z" fill="var(--fill-0, #6342F8)"/>
</svg>
