<svg preserveAspectRatio="none" width="100%" height="100%" overflow="visible" style="display: block;" viewBox="0 0 16 16" fill="none" xmlns="http://www.w3.org/2000/svg">
<g id="Frame 1707478887">
<path id="Union" d="M8.5 1.5C9.60457 1.5 10.5 2.39543 10.5 3.5V4H13.5C13.7761 4 14 4.22386 14 4.5C14 4.77614 13.7761 5 13.5 5H12.5V12.5C12.5 13.6046 11.6046 14.5 10.5 14.5H5.5C4.39543 14.5 3.5 13.6046 3.5 12.5V5H2.5C2.22386 5 2 4.77614 2 4.5C2 4.22386 2.22386 4 2.5 4H5.5V3.5C5.5 2.39543 6.39543 1.5 7.5 1.5H8.5ZM4.5 12.5C4.5 13.0523 4.94772 13.5 5.5 13.5H10.5C11.0523 13.5 11.5 13.0523 11.5 12.5V5H4.5V12.5ZM7.00684 6.5C7.2828 6.50053 7.50618 6.72496 7.50586 7.00098L7.5 12.0059C7.49953 12.2819 7.27508 12.5052 6.99902 12.5049C6.72322 12.5043 6.49993 12.2807 6.5 12.0049L6.50586 7C6.50618 6.72386 6.73069 6.49968 7.00684 6.5ZM9.00684 6.5C9.2828 6.50053 9.50618 6.72496 9.50586 7.00098L9.5 12.0059C9.49953 12.2819 9.27508 12.5052 8.99902 12.5049C8.72322 12.5043 8.49993 12.2807 8.5 12.0049L8.50586 7C8.50618 6.72386 8.73069 6.49968 9.00684 6.5ZM7.5 2.5C6.94772 2.5 6.5 2.94772 6.5 3.5V4H9.5V3.5C9.5 2.94772 9.05228 2.5 8.5 2.5H7.5Z" fill="var(--fill-0, #A19EB2)"/>
</g>
</svg>
