<svg preserveAspectRatio="none" width="100%" height="100%" overflow="visible" style="display: block;" viewBox="0 0 20 20" fill="none" xmlns="http://www.w3.org/2000/svg">
<g id="Union">
<path d="M10.0029 13.002C10.5552 13.002 11.0029 13.4497 11.0029 14.002C11.0027 14.554 10.5551 15.002 10.0029 15.002H9.99805C9.44592 15.002 8.99831 14.554 8.99805 14.002C8.99805 13.4497 9.44576 13.002 9.99805 13.002H10.0029Z" fill="var(--fill-0, #F24742)"/>
<path d="M10.002 4.99902C10.5542 4.99902 11.002 5.44674 11.002 5.99902V10.999C11.0017 11.5511 10.5541 11.999 10.002 11.999C9.44983 11.999 9.00222 11.5511 9.00195 10.999V5.99902C9.00195 5.44674 9.44967 4.99902 10.002 4.99902Z" fill="var(--fill-0, #F24742)"/>
<path fill-rule="evenodd" clip-rule="evenodd" d="M10 0C15.5228 0 20 4.47715 20 10C20 15.5228 15.5228 20 10 20C4.47715 20 0 15.5228 0 10C0 4.47715 4.47715 0 10 0ZM10 2C5.58172 2 2 5.58172 2 10C2 14.4183 5.58172 18 10 18C14.4183 18 18 14.4183 18 10C18 5.58172 14.4183 2 10 2Z" fill="var(--fill-0, #F24742)"/>
</g>
</svg>
