<svg width="24" height="24" viewBox="0 0 24 24" fill="none" xmlns="http://www.w3.org/2000/svg">
<path d="M12.1172 2.00488C12.3915 2.02734 12.6545 2.12763 12.875 2.29492C13.0955 2.46216 13.2628 2.68833 13.3584 2.94629L13.3955 3.05957L13.4004 3.0791L14.8232 8.60059C14.859 8.73883 14.9313 8.86483 15.0322 8.96582C15.1333 9.0669 15.26 9.1391 15.3984 9.1748H15.3975L20.9189 10.5977C20.9244 10.5991 20.9301 10.601 20.9355 10.6025C21.2413 10.6869 21.5109 10.8689 21.7031 11.1211C21.8954 11.3736 22 11.6826 22 12C22 12.3174 21.8954 12.6264 21.7031 12.8789C21.5109 13.1311 21.2413 13.3131 20.9355 13.3975C20.9301 13.399 20.9244 13.4009 20.9189 13.4023L15.3975 14.8242L15.3984 14.8252C15.26 14.8609 15.1333 14.9331 15.0322 15.0342C14.9313 15.1352 14.859 15.2612 14.8232 15.3994L13.3994 20.9209C13.3977 20.9274 13.3963 20.934 13.3945 20.9404C13.3092 21.2452 13.1261 21.5138 12.874 21.7051C12.622 21.8963 12.3144 22 11.998 22C11.6817 22 11.3741 21.8962 11.1221 21.7051C10.87 21.5138 10.6868 21.2452 10.6016 20.9404C10.5998 20.934 10.5984 20.9274 10.5967 20.9209L9.17383 15.3994C9.13814 15.2612 9.06572 15.1352 8.96484 15.0342C8.86377 14.9331 8.73704 14.8609 8.59863 14.8252L3.07715 13.4014C3.06941 13.3994 3.0614 13.3967 3.05371 13.3945C2.75035 13.3083 2.48311 13.1256 2.29297 12.874C2.12667 12.6539 2.02723 12.3915 2.00488 12.1182L2 12L2.00488 11.8818C2.02723 11.6085 2.12667 11.3461 2.29297 11.126L2.36816 11.0352C2.55081 10.8304 2.78821 10.6809 3.05371 10.6055L3.07715 10.5986L8.59863 9.17383C8.73696 9.13816 8.86378 9.06678 8.96484 8.96582C9.06592 8.86481 9.13806 8.73796 9.17383 8.59961L10.5977 3.0791L10.6025 3.05957C10.6878 2.75499 10.8701 2.48615 11.1221 2.29492C11.3742 2.10368 11.6826 2 11.999 2L12.1172 2.00488ZM5 15C5.55228 15 6 15.4477 6 16C6.55228 16 7 16.4477 7 17C7 17.5523 6.55228 18 6 18C6 18.5523 5.55228 19 5 19C4.44772 19 4 18.5523 4 18C3.44772 18 3 17.5523 3 17C3 16.4477 3.44772 16 4 16C4 15.4477 4.44772 15 5 15ZM11.1104 9.09961V9.10059C10.9851 9.5848 10.7317 10.0264 10.3779 10.3799C10.0243 10.7332 9.58269 10.9854 9.09863 11.1104L5.65137 11.999L9.09863 12.8887C9.58296 13.0137 10.0252 13.2664 10.3789 13.6201C10.7325 13.9739 10.9854 14.416 11.1104 14.9004L11.998 18.3457L12.8867 14.9004L12.9395 14.7207C13.0763 14.3067 13.3086 13.9297 13.6182 13.6201C13.9719 13.2663 14.414 13.0137 14.8984 12.8887L18.3467 12L14.8984 11.1113C14.414 10.9863 13.9719 10.7337 13.6182 10.3799C13.3086 10.0703 13.0763 9.69334 12.9395 9.2793L12.8867 9.09961L11.998 5.65332L11.1104 9.09961ZM19 3C19.5523 3 20 3.44772 20 4V5H21C21.5523 5 22 5.44772 22 6C22 6.55228 21.5523 7 21 7H20V8C20 8.55228 19.5523 9 19 9C18.4477 9 18 8.55228 18 8V7H17C16.4477 7 16 6.55228 16 6C16 5.44772 16.4477 5 17 5H18V4C18 3.44772 18.4477 3 19 3Z" fill="white"/>
</svg>
