<svg width="24" height="24" viewBox="0 0 24 24" fill="none" xmlns="http://www.w3.org/2000/svg">
<path d="M12 4.5C12.2761 4.5 12.5 4.72386 12.5 5V14.293L15.1465 11.6465C15.3417 11.4512 15.6583 11.4512 15.8535 11.6465C16.0488 11.8417 16.0488 12.1583 15.8535 12.3535L12.3535 15.8535C12.1583 16.0488 11.8417 16.0488 11.6465 15.8535L8.14648 12.3535C7.95122 12.1583 7.95122 11.8417 8.14648 11.6465C8.34175 11.4512 8.65825 11.4512 8.85352 11.6465L11.5 14.293V5C11.5 4.72386 11.7239 4.5 12 4.5Z" fill="#A19EB2"/>
<path d="M5.5 17C5.77614 17 6 17.2239 6 17.5V18.5C6 19.0523 6.44772 19.5 7 19.5H17C17.5523 19.5 18 19.0523 18 18.5V17.5C18 17.2239 18.2239 17 18.5 17C18.7761 17 19 17.2239 19 17.5V18.5C19 19.6046 18.1046 20.5 17 20.5H7C5.89543 20.5 5 19.6046 5 18.5V17.5C5 17.2239 5.22386 17 5.5 17Z" fill="#A19EB2"/>
</svg>
