<svg width="64" height="64" viewBox="0 0 64 64" fill="none" xmlns="http://www.w3.org/2000/svg">
  <rect x="4" y="4" width="56" height="56" rx="16" fill="white"/>
  <rect x="4.5" y="4.5" width="55" height="55" rx="15.5" stroke="#EAE4FD"/>
  <g transform="translate(17.5 16)">
    <path d="M22.434 0C26.0603 5.24142e-08 29 2.91394 29 6.50847V21.1525C29 21.7246 28.925 22.2792 28.7852 22.8077C27.752 28.0465 23.097 32 17.5094 32H15.1049C14.0501 31.9999 13.4366 30.8182 14.0495 29.9674L15.7116 27.661H4.37736C1.95981 27.661 8.37285e-08 25.7184 0 23.322V6.50847C0 2.91394 2.93972 5.24142e-08 6.56604 0H22.434ZM7.93396 3.68803C6.42303 3.68803 5.19817 4.90222 5.19811 6.39989V21.2611C5.19817 22.7588 6.42303 23.973 7.93396 23.973H8.05953C9.57047 23.973 10.7953 22.7588 10.7954 21.2611V18.7611C10.7954 17.2634 12.0203 16.0493 13.5312 16.0493H17.6577C17.9599 16.0493 18.2049 16.2921 18.2049 16.5916V24.3652C21.355 24.008 23.8019 21.3569 23.8019 18.1388V13.8337L23.8022 13.8305V6.39989C23.8021 4.90222 22.5772 3.68803 21.0663 3.68803H20.9407C19.4298 3.68804 18.2049 4.90223 18.2049 6.39989V11.0694C18.2049 11.3689 17.9599 11.6118 17.6577 11.6118H11.3426C11.0404 11.6117 10.7954 11.3689 10.7954 11.0694V6.39989C10.7953 4.90222 9.57047 3.68803 8.05953 3.68803H7.93396Z" fill="#6342F8"/>
  </g>
</svg>
