<svg width="148" height="32" viewBox="0 0 148 32" fill="none" xmlns="http://www.w3.org/2000/svg">
<path d="M22.434 0C26.0603 5.24142e-08 29 2.91394 29 6.50847V21.1525C29 21.7246 28.925 22.2792 28.7852 22.8077C27.752 28.0465 23.097 32 17.5094 32H15.1049C14.0501 31.9999 13.4366 30.8182 14.0495 29.9674L15.7116 27.661H4.37736C1.95981 27.661 8.37285e-08 25.7184 0 23.322V6.50847C0 2.91394 2.93972 5.24142e-08 6.56604 0H22.434ZM7.93396 3.68803C6.42303 3.68803 5.19817 4.90222 5.19811 6.39989V21.2611C5.19817 22.7588 6.42303 23.973 7.93396 23.973H8.05953C9.57047 23.973 10.7953 22.7588 10.7954 21.2611V18.7611C10.7954 17.2634 12.0203 16.0493 13.5312 16.0493H17.6577C17.9599 16.0493 18.2049 16.2921 18.2049 16.5916V24.3652C21.355 24.008 23.8019 21.3569 23.8019 18.1388V13.8337L23.8022 13.8305V6.39989C23.8021 4.90222 22.5772 3.68803 21.0663 3.68803H20.9407C19.4298 3.68804 18.2049 4.90223 18.2049 6.39989V11.0694C18.2049 11.3689 17.9599 11.6118 17.6577 11.6118H11.3426C11.0404 11.6117 10.7954 11.3689 10.7954 11.0694V6.39989C10.7953 4.90222 9.57047 3.68803 8.05953 3.68803H7.93396Z" fill="#6342F8"/>
<path d="M142.011 24.3901V8.71688H147.022V24.3901H142.011ZM141.924 6.96894V3.23999H147.11V6.96894H141.924Z" fill="#6342F8"/>
<path d="M129.95 24.7396C128.318 24.7396 126.978 24.3609 125.93 23.6035C124.881 22.846 124.356 21.7973 124.356 20.4572C124.356 19.0782 124.803 18.01 125.697 17.2526C126.59 16.4952 127.891 15.9416 129.6 15.592L134.465 14.6015C134.465 13.6887 134.262 12.9993 133.854 12.5331C133.465 12.0476 132.902 11.8048 132.164 11.8048C131.426 11.8048 130.843 11.9893 130.416 12.3583C130.008 12.7079 129.746 13.2129 129.629 13.8732L124.619 13.6984C124.929 11.8922 125.735 10.5521 127.037 9.67817C128.338 8.80419 130.047 8.36721 132.164 8.36721C134.611 8.36721 136.437 8.92072 137.641 10.0278C138.864 11.1348 139.476 12.7856 139.476 14.9803V19.9328C139.476 20.4183 139.554 20.7388 139.709 20.8941C139.884 21.0495 140.117 21.1272 140.409 21.1272H140.787V24.39C140.632 24.4483 140.379 24.4969 140.03 24.5357C139.68 24.5745 139.34 24.594 139.01 24.594C138.408 24.594 137.825 24.4969 137.262 24.3026C136.699 24.089 136.233 23.72 135.864 23.1956C135.495 22.6518 135.31 21.8749 135.31 20.865L135.689 21.2437C135.495 21.9429 135.145 22.5644 134.64 23.1082C134.155 23.6326 133.523 24.0404 132.747 24.3318C131.97 24.6037 131.038 24.7396 129.95 24.7396ZM131.261 21.4768C131.882 21.4768 132.436 21.3506 132.921 21.0981C133.407 20.8456 133.786 20.4766 134.058 19.991C134.329 19.5055 134.465 18.9034 134.465 18.1848V17.5439L131.436 18.2431C130.834 18.379 130.358 18.5927 130.008 18.884C129.678 19.1559 129.513 19.5249 129.513 19.991C129.513 20.4572 129.659 20.8262 129.95 21.0981C130.241 21.3506 130.678 21.4768 131.261 21.4768Z" fill="#6342F8"/>
<path d="M117.785 24.3901V19.525H123.029V24.3901H117.785Z" fill="#6342F8"/>
<path d="M104.611 28.7601V25.1477H106.766C107.252 25.1477 107.611 25.07 107.844 24.9146C108.077 24.7787 108.262 24.5262 108.398 24.1572L108.66 23.458H107.349L101.901 8.71702H106.97L110.204 18.7386L113.234 8.71702H118.274L112.36 25.7012C111.971 26.8083 111.437 27.5948 110.758 28.061C110.078 28.5271 109.126 28.7601 107.903 28.7601H104.611Z" fill="#190B5A"/>
<path d="M99.7013 24.3901C98.303 24.3901 97.2153 24.0405 96.4385 23.3414C95.6616 22.6422 95.2732 21.506 95.2732 19.9329V3.7061H100.284V19.3793C100.284 19.8843 100.401 20.2436 100.634 20.4572C100.867 20.6709 101.197 20.7777 101.624 20.7777H102.585V24.3901H99.7013Z" fill="#190B5A"/>
<path d="M77.2094 28.7599V8.71679H82.0745L82.1619 12.0088L81.7832 11.8631C82.1716 10.7366 82.7931 9.87238 83.6477 9.27031C84.5217 8.66824 85.551 8.36721 86.7357 8.36721C88.1535 8.36721 89.348 8.72651 90.319 9.44511C91.2901 10.1443 92.0282 11.1154 92.5331 12.3583C93.0381 13.5819 93.2906 14.9803 93.2906 16.5534C93.2906 18.1071 93.0284 19.5055 92.504 20.7485C91.999 21.9915 91.2513 22.9723 90.2608 23.6909C89.2897 24.39 88.0953 24.7396 86.6775 24.7396C85.92 24.7396 85.2111 24.6037 84.5508 24.3318C83.9099 24.0404 83.3466 23.6423 82.8611 23.1373C82.395 22.613 82.0551 22.0012 81.8414 21.302L82.2202 21.1272V28.7599H77.2094ZM85.1626 21.0398C86.0754 21.0398 86.794 20.6417 87.3184 19.8454C87.8622 19.0297 88.1341 17.9324 88.1341 16.5534C88.1341 15.1745 87.8622 14.0869 87.3184 13.2906C86.794 12.4749 86.0754 12.067 85.1626 12.067C84.5411 12.067 84.007 12.2418 83.5603 12.5914C83.133 12.9216 82.8028 13.4168 82.5698 14.0772C82.3367 14.7375 82.2202 15.5629 82.2202 16.5534C82.2202 17.5439 82.3367 18.3693 82.5698 19.0297C82.8028 19.69 83.133 20.195 83.5603 20.5446C84.007 20.8747 84.5411 21.0398 85.1626 21.0398Z" fill="#190B5A"/>
<path d="M62.4526 28.7601V25.1477H64.6084C65.0939 25.1477 65.4532 25.07 65.6863 24.9146C65.9194 24.7787 66.1039 24.5262 66.2398 24.1572L66.502 23.458H65.191L59.7432 8.71702H64.8123L68.046 18.7386L71.0758 8.71702H76.1158L70.2019 25.7012C69.8134 26.8083 69.2793 27.5948 68.5996 28.061C67.9198 28.5271 66.9681 28.7601 65.7446 28.7601H62.4526Z" fill="#190B5A"/>
<path d="M41 24.3901V3.7061H46.0691V13.4363L43.8841 11.8923H55.2459L53.0609 13.4363V3.7061H58.13V24.3901H53.0609V14.5434L55.2459 16.0582H43.8841L46.0691 14.5434V24.3901H41Z" fill="#190B5A"/>
</svg>
