<svg width="148" height="32" viewBox="0 0 148 32" fill="none" xmlns="http://www.w3.org/2000/svg">
<path d="M22.434 0C26.0603 5.24142e-08 29 2.91394 29 6.50847V21.1525C29 21.7246 28.925 22.2792 28.7852 22.8077C27.752 28.0465 23.097 32 17.5094 32H15.1049C14.0501 31.9999 13.4366 30.8182 14.0495 29.9674L15.7116 27.661H4.37736C1.95981 27.661 8.37285e-08 25.7184 0 23.322V6.50847C0 2.91394 2.93972 5.24142e-08 6.56604 0H22.434ZM7.93396 3.68803C6.42303 3.68803 5.19817 4.90222 5.19811 6.39989V21.2611C5.19817 22.7588 6.42303 23.973 7.93396 23.973H8.05953C9.57047 23.973 10.7953 22.7588 10.7954 21.2611V18.7611C10.7954 17.2634 12.0203 16.0493 13.5312 16.0493H17.6577C17.9599 16.0493 18.2049 16.2921 18.2049 16.5916V24.3652C21.355 24.008 23.8019 21.3569 23.8019 18.1388V13.8337L23.8022 13.8305V6.39989C23.8021 4.90222 22.5772 3.68803 21.0663 3.68803H20.9407C19.4298 3.68804 18.2049 4.90223 18.2049 6.39989V11.0694C18.2049 11.3689 17.9599 11.6118 17.6577 11.6118H11.3426C11.0404 11.6117 10.7954 11.3689 10.7954 11.0694V6.39989C10.7953 4.90222 9.57047 3.68803 8.05953 3.68803H7.93396Z" fill="white"/>
<path d="M142.011 24.3899V8.71664H147.022V24.3899H142.011ZM141.924 6.96869V3.23975H147.11V6.96869H141.924Z" fill="white"/>
<path d="M129.95 24.7394C128.318 24.7394 126.978 24.3607 125.93 23.6032C124.881 22.8458 124.356 21.797 124.356 20.4569C124.356 19.078 124.803 18.0098 125.697 17.2523C126.59 16.4949 127.891 15.9414 129.6 15.5918L134.465 14.6013C134.465 13.6885 134.262 12.999 133.854 12.5329C133.465 12.0474 132.902 11.8046 132.164 11.8046C131.426 11.8046 130.843 11.9891 130.416 12.3581C130.008 12.7077 129.746 13.2127 129.629 13.873L124.619 13.6982C124.929 11.892 125.735 10.5519 127.037 9.67792C128.338 8.80395 130.047 8.36696 132.164 8.36696C134.611 8.36696 136.437 8.92048 137.641 10.0275C138.864 11.1345 139.476 12.7854 139.476 14.98V19.9325C139.476 20.4181 139.554 20.7385 139.709 20.8939C139.884 21.0493 140.117 21.127 140.409 21.127H140.787V24.3898C140.632 24.4481 140.379 24.4966 140.03 24.5355C139.68 24.5743 139.34 24.5937 139.01 24.5937C138.408 24.5937 137.825 24.4966 137.262 24.3024C136.699 24.0888 136.233 23.7197 135.864 23.1954C135.495 22.6516 135.31 21.8747 135.31 20.8648L135.689 21.2435C135.495 21.9427 135.145 22.5642 134.64 23.108C134.155 23.6324 133.523 24.0402 132.747 24.3315C131.97 24.6034 131.038 24.7394 129.95 24.7394ZM131.261 21.4766C131.882 21.4766 132.436 21.3503 132.921 21.0978C133.407 20.8453 133.786 20.4763 134.058 19.9908C134.329 19.5053 134.465 18.9032 134.465 18.1846V17.5437L131.436 18.2429C130.834 18.3788 130.358 18.5924 130.008 18.8838C129.678 19.1557 129.513 19.5247 129.513 19.9908C129.513 20.4569 129.659 20.8259 129.95 21.0978C130.241 21.3503 130.678 21.4766 131.261 21.4766Z" fill="white"/>
<path d="M117.785 24.3898V19.5247H123.029V24.3898H117.785Z" fill="white"/>
<path d="M104.611 28.7599V25.1475H106.766C107.252 25.1475 107.611 25.0698 107.844 24.9144C108.077 24.7785 108.262 24.526 108.398 24.157L108.66 23.4578H107.349L101.901 8.71678H106.97L110.204 18.7383L113.234 8.71678H118.274L112.36 25.701C111.971 26.808 111.437 27.5946 110.758 28.0607C110.078 28.5268 109.126 28.7599 107.903 28.7599H104.611Z" fill="white"/>
<path d="M99.7013 24.3899C98.303 24.3899 97.2153 24.0403 96.4385 23.3411C95.6616 22.6419 95.2732 21.5058 95.2732 19.9326V3.70586H100.284V19.3791C100.284 19.8841 100.401 20.2434 100.634 20.457C100.867 20.6706 101.197 20.7775 101.624 20.7775H102.585V24.3899H99.7013Z" fill="white"/>
<path d="M77.2094 28.7597V8.71655H82.0745L82.1619 12.0085L81.7832 11.8629C82.1716 10.7364 82.7931 9.87214 83.6477 9.27007C84.5217 8.668 85.551 8.36696 86.7357 8.36696C88.1535 8.36696 89.348 8.72626 90.319 9.44486C91.2901 10.144 92.0282 11.1151 92.5331 12.3581C93.0381 13.5817 93.2906 14.98 93.2906 16.5532C93.2906 18.1069 93.0284 19.5053 92.504 20.7482C91.999 21.9912 91.2513 22.972 90.2608 23.6906C89.2897 24.3898 88.0953 24.7394 86.6775 24.7394C85.92 24.7394 85.2111 24.6034 84.5508 24.3315C83.9099 24.0402 83.3466 23.6421 82.8611 23.1371C82.395 22.6127 82.0551 22.0009 81.8414 21.3018L82.2202 21.127V28.7597H77.2094ZM85.1626 21.0396C86.0754 21.0396 86.794 20.6414 87.3184 19.8451C87.8622 19.0294 88.1341 17.9321 88.1341 16.5532C88.1341 15.1742 87.8622 14.0866 87.3184 13.2903C86.794 12.4746 86.0754 12.0668 85.1626 12.0668C84.5411 12.0668 84.007 12.2416 83.5603 12.5912C83.133 12.9213 82.8028 13.4166 82.5698 14.0769C82.3367 14.7372 82.2202 15.5627 82.2202 16.5532C82.2202 17.5437 82.3367 18.3691 82.5698 19.0294C82.8028 19.6898 83.133 20.1947 83.5603 20.5443C84.007 20.8745 84.5411 21.0396 85.1626 21.0396Z" fill="white"/>
<path d="M62.4526 28.7599V25.1475H64.6084C65.0939 25.1475 65.4532 25.0698 65.6863 24.9144C65.9194 24.7785 66.1039 24.526 66.2398 24.157L66.502 23.4578H65.191L59.7432 8.71678H64.8123L68.046 18.7383L71.0758 8.71678H76.1158L70.2019 25.701C69.8134 26.808 69.2793 27.5946 68.5996 28.0607C67.9198 28.5268 66.9681 28.7599 65.7446 28.7599H62.4526Z" fill="white"/>
<path d="M41 24.3899V3.70586H46.0691V13.4361L43.8841 11.8921H55.2459L53.0609 13.4361V3.70586H58.13V24.3899H53.0609V14.5431L55.2459 16.058H43.8841L46.0691 14.5431V24.3899H41Z" fill="white"/>
</svg>
